<svg xmlns="http://www.w3.org/2000/svg" width="83.768" height="71.506" viewBox="0 0 83.768 71.506">
  <g id="tick-svgrepo-com" transform="translate(-249.858 -304.659)" fill="#95c0d1">
    <path d="M 283.150634765625 369.0944519042969 L 279.6151123046875 365.5588989257812 L 260.4644165039062 346.4081420898438 L 256.9288940429688 342.8726196289062 L 260.4644470214844 339.3370971679688 L 267.3551330566406 332.4464111328125 L 270.8890686035156 328.9125061035156 L 274.4245910644531 332.44482421875 L 283.1497192382812 341.1620788574219 L 309.0578308105469 315.2637939453125 L 312.5933532714844 311.7296142578125 L 316.1282043457031 315.2644348144531 L 323.0189208984375 322.1551208496094 L 326.5544738769531 325.690673828125 L 323.0189208984375 329.2261962890625 L 286.6861572265625 365.5589294433594 L 283.150634765625 369.0944519042969 Z" stroke="none"/>
    <path d="M 312.5926818847656 318.7999877929688 L 283.150634765625 348.2308654785156 L 270.8906555175781 335.9819641113281 L 263.9999694824219 342.8726196289062 L 283.150634765625 362.0233764648438 L 319.4833984375 325.690673828125 L 312.5926818847656 318.7999877929688 M 312.593994140625 304.6592102050781 L 333.6255493164062 325.690673828125 L 283.1506042480469 376.16552734375 L 249.8578186035156 342.8725891113281 L 270.8874816894531 321.8430480957031 L 283.1487731933594 334.09326171875 L 312.593994140625 304.6592102050781 Z" stroke="none" fill="#31343b"/>
  </g>
</svg>
