<svg class="svg-icon" fill="#31343B"  style="width: 1em; height: 1em;vertical-align: middle;fill: currentColor;overflow: hidden;" viewBox="0 0 1024 1024" version="1.1" xmlns="http://www.w3.org/2000/svg"><path d="M704.91465 439.99236c0-22.091616-17.907689-39.999305-39.999305-39.999305h-411.992847c-22.091616 0-39.999305 17.907689-39.999305 39.999305s17.907689 39.999305 39.999305 39.999306h411.992847c22.091616 0 39.999305-17.907689 39.999305-39.999306zM252.922498 559.990277c-22.091616 0-39.999305 17.907689-39.999305 39.999305s17.907689 39.999305 39.999305 39.999306H503.140154c22.091616 0 39.999305-17.907689 39.999305-39.999306s-17.907689-39.999305-39.999305-39.999305H252.922498z"  /><path d="M346.920866 943.983609H213.145189c-44.111234 0-79.998611-35.887377-79.998611-79.998611V159.997222c0-44.111234 35.887377-79.998611 79.998611-79.998611h491.769461c44.111234 0 79.998611 35.887377 79.998611 79.998611v245.995729c0 22.091616 17.907689 39.999305 39.999306 39.999305s39.999305-17.907689 39.999305-39.999305V159.997222c0-88.222468-71.774754-159.997222-159.997222-159.997222H213.145189c-88.222468 0-159.997222 71.774754-159.997222 159.997222v703.987776c0 88.222468 71.774754 159.997222 159.997222 159.997222h133.775677c22.091616 0 39.999305-17.907689 39.999306-39.999305s-17.907689-39.999305-39.999306-39.999306z"  /><path d="M935.760642 579.133944c-46.787188-46.787188-122.913866-46.789188-169.671054-0.031999l-219.602187 219.116195a40.009305 40.009305 0 0 0-10.019826 16.689711l-47.825169 157.447266a39.999305 39.999305 0 0 0 48.95115 50.173129l161.447196-44.721224a39.985306 39.985306 0 0 0 17.579695-10.237822l219.142195-218.730202c46.787188-46.787188 46.787188-122.913866-0.002-169.705054zM667.549299 903.520312l-81.22259 22.499609 23.769588-78.256641 148.175427-147.847433 56.579018 56.579018-147.301443 147.025447zM879.223624 692.24798l-7.749866 7.733866-56.569017-56.569018 7.723865-7.707866c15.595729-15.595729 40.971289-15.595729 56.567018 0 15.595729 15.595729 15.595729 40.971289 0.028 56.543018zM664.915345 239.995833h-411.992847c-22.091616 0-39.999305 17.907689-39.999305 39.999305s17.907689 39.999305 39.999305 39.999306h411.992847c22.091616 0 39.999305-17.907689 39.999305-39.999306s-17.907689-39.999305-39.999305-39.999305z"  /></svg>