<svg xmlns="http://www.w3.org/2000/svg" width="21.829" height="21.884" viewBox="0 0 21.829 21.884">
  <g id="cross-svgrepo-com" transform="translate(0.706 1.414)" fill="#545961">
    <path d="M 1.970804929733276 19.76212692260742 L 1.616665005683899 19.40927696228027 L 0.3551049530506134 18.1523380279541 L 0.0008449514862149954 17.79937744140625 L 0.3538549542427063 17.44517707824707 L 8.24478816986084 9.527697563171387 L 0.3538649380207062 1.610477328300476 L 0.0009249514550901949 1.256357312202454 L 0.3550149500370026 0.9033973217010498 L 1.616575002670288 -0.354122668504715 L 1.970724940299988 -0.7071326375007629 L 2.323714971542358 -0.3529626429080963 L 10.20800495147705 7.557865142822266 L 18.09229469299316 -0.3529626429080963 L 18.44528579711914 -0.7071326375007629 L 18.79942512512207 -0.354122668504715 L 20.06099510192871 0.9033973217010498 L 20.41510581970215 1.256357312202454 L 20.06215476989746 1.610487341880798 L 12.171217918396 9.527703285217285 L 20.06216430664062 17.44517707824707 L 20.41517448425293 17.79937744140625 L 20.06091499328613 18.1523380279541 L 18.79934501647949 19.40927696228027 L 18.44520568847656 19.76211738586426 L 18.09230422973633 19.40803718566895 L 10.20800495147705 11.49745750427246 L 2.323704957962036 19.40803718566895 L 1.970804929733276 19.76212692260742 Z" stroke="none"/>
    <path d="M 1.969564437866211 -1.9073486328125e-06 L 0.7079944610595703 1.257516860961914 L 8.950715065002441 9.527697563171387 L 0.7079944610595703 17.79813766479492 L 1.969564437866211 19.05507659912109 L 10.20800495147705 10.78917694091797 L 18.44644546508789 19.05507659912109 L 19.70800399780273 17.79813766479492 L 11.4652853012085 9.527697563171387 L 19.70800399780273 1.257516860961914 L 18.44644546508789 -1.9073486328125e-06 L 10.20800495147705 8.266167640686035 L 1.969564437866211 -1.9073486328125e-06 M 18.44412422180176 -1.414272308349609 L 21.1221752166748 1.255207061767578 L 12.87714004516602 9.527708053588867 L 21.1223258972168 17.80061721801758 L 18.4439754486084 20.46916770935059 L 10.20800495147705 12.20574760437012 L 1.9720458984375 20.46916770935059 L -0.7063255310058594 17.80062675476074 L 7.538860321044922 9.527708053588867 L -0.7061748504638672 1.255207061767578 L 1.971885681152344 -1.414262771606445 L 10.20800495147705 6.849573135375977 L 18.44412422180176 -1.414272308349609 Z" stroke="none" fill="#545961"/>
  </g>
</svg>
