<?xml version="1.0" encoding="utf-8"?>
<!-- Generator: Adobe Illustrator 27.7.0, SVG Export Plug-In . SVG Version: 6.00 Build 0)  -->
<svg version="1.1" id="Layer_1" xmlns="http://www.w3.org/2000/svg" xmlns:xlink="http://www.w3.org/1999/xlink" x="0px" y="0px"
	 viewBox="0 0 800 800" style="enable-background:new 0 0 800 800;" xml:space="preserve">
<style type="text/css">
	.st0{fill:#31343B;}
</style>
<path class="st0" d="M700,150H100c-27.6,0-50,22.4-50,50v400c0,27.6,22.4,50,50,50h450.5l149.7,99.8L700,650c27.6,0,50-22.4,50-50
	V200C750,172.4,727.6,150,700,150z M200,450c-27.6,0-50-22.4-50-50s22.4-50,50-50s50,22.4,50,50S227.6,450,200,450z M400,450
	c-27.6,0-50-22.4-50-50s22.4-50,50-50s50,22.4,50,50S427.6,450,400,450z M600,450c-27.6,0-50-22.4-50-50s22.4-50,50-50
	s50,22.4,50,50S627.6,450,600,450z"/>
</svg>
